<svg width="500" height="500" viewBox="0 0 500 500" fill="none" xmlns="http://www.w3.org/2000/svg">
<g clip-path="url(#clip0_2164_34)">
<path d="M0 0H500V500H0V0Z" fill="black"/>
<path d="M130.397 199.623L184.808 199.621L184.806 231.699C184.833 250.998 186.825 271.927 171.912 286.856C156.472 302.311 127.708 304.505 106.903 304.567C84.7571 304.3 56.6771 303.171 39.8636 286.794C25.3933 272.7 27.0588 251.965 27.0579 233.555L27.0768 199.628L81.4135 199.625L81.403 237.039C81.3962 241.439 81.1034 253.601 81.8362 257.124C82.5334 260.394 84.1698 263.391 86.5444 265.745C98.8203 278.097 130.434 274.197 130.402 253.195C130.394 247.869 130.406 242.536 130.397 237.209V199.623Z" fill="#FEFEFE"/>
<path d="M257.243 196.049C265.493 195.798 277.164 196.541 285.275 197.659C297.883 199.396 313.297 203.508 321.193 214.173C325.942 220.586 327.442 229.327 326.237 237.131C323.208 256.751 301.377 260.367 285.223 263.359L261.468 267.682C255.012 268.891 247.076 270.184 241.777 274.047L323.254 274.038L323.249 303.296L232.537 303.296L184.188 303.298C184.169 290.591 183.747 280.343 192.762 269.948C211.535 248.375 241.947 246.592 267.708 239.262C271.107 238.294 280.123 236.185 275.461 229.619C272.748 226.872 265.691 226.092 262.351 226.059C250.472 225.941 235.268 224.955 234.58 240.623L188.575 240.617C188.782 229.958 190.773 219.889 198.488 211.984C212.436 197.689 238.476 196.376 257.243 196.049Z" fill="#FEFEFE"/>
<path d="M383.393 199.621L453.085 199.626L453.08 255.321L473.922 255.319L473.908 285.496L453.081 285.506L453.082 303.299L417.594 303.296L405.499 303.302L405.507 285.504L327 285.503L327.004 255.078C333.16 248.767 340.014 242.277 346.327 236.057L383.393 199.621Z" fill="#FEFEFE"/>
<path d="M405.241 225.934C405.715 226.508 405.516 252.554 405.514 255.315L376.041 255.317L375.898 255.168C376.239 254.317 402.733 228.416 405.241 225.934Z" fill="black"/>
</g>
<defs>
<clipPath id="clip0_2164_34">
<rect width="500" height="500" fill="white"/>
</clipPath>
</defs>
</svg>
