<?xml version="1.0" encoding="utf-8" ?><svg xmlns="http://www.w3.org/2000/svg" xmlns:xlink="http://www.w3.org/1999/xlink" width="500" height="500" viewBox="0 0 500 500"><path transform="scale(0.454545 0.454545)" d="M0 0L1100 0L1100 1100L0 1100L0 0Z"/><path fill="#FEFEFE" transform="scale(0.454545 0.454545)" d="M287.964 319.106L407.67 319.102L407.665 389.673C407.724 432.131 412.107 478.176 379.298 511.018C345.331 545.021 282.049 549.847 236.278 549.984C187.557 549.395 125.781 546.913 88.7912 510.883C56.9566 479.875 60.6206 434.258 60.6187 393.757L60.6603 319.117L180.201 319.11L180.178 401.422C180.163 411.102 179.519 437.858 181.131 445.608C182.665 452.803 186.265 459.395 191.489 464.575C218.496 491.749 288.046 483.169 287.976 436.965C287.958 425.247 287.985 413.514 287.964 401.795L287.964 319.106Z"/><path fill="#FEFEFE" transform="scale(0.454545 0.454545)" d="M567.026 311.243C585.174 310.691 610.852 312.326 628.696 314.785C656.433 318.607 690.343 327.654 707.715 351.116C718.162 365.225 721.462 384.456 718.812 401.623C712.148 444.788 664.12 452.744 628.582 459.325L576.319 468.836C562.117 471.496 544.657 474.341 533 482.839L712.249 482.819L712.239 547.187L512.671 547.188L406.303 547.192C406.261 519.235 405.333 496.691 425.167 473.822C466.467 426.361 533.374 422.438 590.047 406.312C597.526 404.183 617.362 399.542 607.104 385.097C601.135 379.055 585.611 377.338 578.262 377.265C552.129 377.005 518.68 374.837 517.167 409.306L415.955 409.293C416.41 385.843 420.791 363.692 437.763 346.3C468.449 314.852 525.737 311.962 567.026 311.243Z"/><path fill="#FEFEFE" transform="scale(0.454545 0.454545)" d="M844.557 319.102L997.879 319.113L997.868 441.641L1043.72 441.638L1043.69 508.027L997.871 508.049L997.872 547.193L919.8 547.188L893.19 547.2L893.208 508.044L720.492 508.042L720.5 441.108C734.043 427.223 749.123 412.944 763.012 399.261L844.557 319.102Z"/><path transform="scale(0.454545 0.454545)" d="M892.607 376.995C893.651 378.259 893.213 435.561 893.208 441.635L828.368 441.638L828.054 441.311C828.804 439.438 887.09 382.457 892.607 376.995Z"/><path fill="#FEFEFE" transform="scale(0.454545 0.454545)" d="M543.117 579.023L612.319 579.003C649.238 579.002 696.56 574.642 724.981 601.663C743.707 619.467 749.416 646.674 749.754 671.557C750.147 700.441 746.646 728.755 725.877 750.435C697.561 777.697 653.251 773.821 616.785 773.823L543.104 773.821L543.117 579.023Z"/><path transform="scale(0.454545 0.454545)" d="M569.911 598.886L627.743 598.845C644.696 598.84 659.952 598.067 676.846 601.111C709.822 607.054 721.735 633.008 722.747 664.212C723.577 689.778 723.829 716.761 705.678 737.124C683.618 757.58 650.748 754.074 622.593 754.048L569.881 754.044L569.911 598.886Z"/><path fill="#FEFEFE" transform="scale(0.454545 0.454545)" d="M281.84 579.008L321.243 579.028L321.226 773.827L294.578 773.835L294.582 631.909C294.56 623.126 294.29 612.697 294.841 604.065C285.103 620.617 273.92 643.334 264.643 660.82L204.696 773.831L177.519 773.842C148.462 717.476 117.453 660.519 87.6393 604.382C88.3644 660.279 87.6624 717.784 87.6628 773.814L60.9971 773.823C60.2044 709.556 60.9736 643.402 60.9544 579.023L100.46 579.023L191.08 749.41C200.538 733.461 212.052 710.141 220.99 693.334L281.84 579.008Z"/><path fill="#FEFEFE" transform="scale(0.454545 0.454545)" d="M913.04 579.006L943.604 579.025C953.685 599.439 964.942 620.514 975.39 640.826L1043.75 773.794L1014.87 773.843L991.455 726.717L943.97 726.728L865.525 726.712C857.648 741.693 850.066 759.321 841.933 773.838L813.114 773.802C846.861 709.632 879.9 643.613 913.04 579.006Z"/><path transform="scale(0.454545 0.454545)" d="M928.062 600.814C929.478 601.727 976.233 696.451 981.306 706.9L929.468 706.9L875.259 706.908L928.062 600.814Z"/><path fill="#FEFEFE" transform="scale(0.454545 0.454545)" d="M352.942 579.022L520.052 579.025L520.044 598.88L379.732 598.886L379.713 662.37L514.574 662.382L514.554 681.992L417.065 682.007L379.727 682.034L379.705 754.042L525.344 754.05L525.326 773.819L352.958 773.824L352.942 579.022Z"/><path fill="#FEFEFE" transform="scale(0.454545 0.454545)" d="M771.455 579.022L798.178 579.029L798.122 773.823L771.454 773.835L771.455 579.022Z"/></svg>